<?xml version="1.0" encoding="UTF-8"?>
<svg version="1.1" xmlns="http://www.w3.org/2000/svg" width="512" height="512">
<path d="M0 0 C1.45415238 -0.00461568 2.90830009 -0.01097306 4.36243814 -0.01890898 C8.3359516 -0.03553385 12.30907844 -0.02738741 16.28259289 -0.0149641 C20.57645227 -0.00588782 24.87024668 -0.01989604 29.16409302 -0.03088379 C37.56661235 -0.04864569 45.96898855 -0.04483956 54.37151343 -0.03323323 C61.20139683 -0.0241906 68.03124018 -0.02297849 74.86112785 -0.02732849 C76.32058848 -0.02824789 76.32058848 -0.02824789 77.80953316 -0.02918586 C79.78625025 -0.03046479 81.76296733 -0.03176165 83.7396844 -0.03307623 C102.2635101 -0.04447504 120.78725654 -0.03137896 139.31106924 -0.00987476 C155.19890985 0.0079984 171.08663355 0.00488895 186.97447205 -0.0135498 C205.43468173 -0.03496399 223.89482202 -0.04337944 242.3550424 -0.03110075 C244.32408137 -0.02982658 246.29312035 -0.0285691 248.26215935 -0.02732849 C249.71528514 -0.02640284 249.71528514 -0.02640284 251.19776701 -0.02545848 C258.01847931 -0.02200744 264.83914751 -0.02782858 271.65985298 -0.0372467 C279.97333202 -0.04847402 288.28666003 -0.04541111 296.6001218 -0.02412373 C300.84027373 -0.01362361 305.08017398 -0.00947374 309.32032394 -0.02272034 C313.20460951 -0.03467153 317.08841097 -0.02803723 320.97265285 -0.00681013 C322.37492255 -0.0023556 323.77723347 -0.00458449 325.17947651 -0.01431328 C335.85445284 -0.08267403 343.97852385 1.42847143 351.99082947 8.80871582 C357.95026948 15.54210908 358.64644703 23.44582649 358.56547546 32.16682434 C358.55197807 34.11587173 358.55197807 34.11587173 358.53820801 36.10429382 C358.52739291 37.1421531 358.52739291 37.1421531 358.51635933 38.20097923 C358.49309067 40.43666568 358.47599137 42.67232794 358.46047974 44.90808105 C358.44372893 47.31926957 358.42662656 49.73044943 358.40772867 52.14162219 C358.36143148 58.11766705 358.3362227 64.0935412 358.32365417 70.06974792 C358.32181964 70.93911006 358.3199851 71.80847219 358.31809497 72.70417863 C358.31100509 76.28740149 358.30470156 79.87062507 358.2989974 83.45385039 C358.28217928 93.60807118 358.24428215 103.76116691 358.14170837 113.91491699 C358.06022528 121.99411101 358.0248364 130.07202892 358.04322267 138.15163392 C358.05123881 142.4219712 358.03639723 146.68940462 357.96561432 150.95922279 C357.89953107 154.97844364 357.89498643 158.99318003 357.9362278 163.01268768 C357.94064701 164.48086618 357.9231253 165.94931381 357.88114738 167.41689873 C357.56185608 175.22343595 357.56185608 175.22343595 360.7833643 182.0748117 C364.34234468 185.42594192 368.35764042 187.93503842 372.49473572 190.50793457 C374.83782243 192.39506641 377.05020737 194.38871428 379.24473572 196.44543457 C379.78001892 196.94502686 380.31530212 197.44461914 380.86680603 197.95935059 C409.09409525 224.81083462 425.62595429 264.07772238 426.62364197 302.82824707 C427.16210861 334.77286318 419.76368611 369.93197193 399.49473572 395.50793457 C401.07870809 399.37499812 403.54734622 401.7771154 406.50767517 404.68444824 C407.016875 405.18751495 407.52607483 405.69058167 408.05070496 406.20889282 C409.15457888 407.29848692 410.26068218 408.38582604 411.36875343 409.47115135 C413.12742903 411.19493019 414.8788243 412.92580416 416.62832642 414.65888977 C421.60294278 419.58472031 426.58845903 424.49940296 431.58335876 429.40466309 C434.64174468 432.40916221 437.690054 435.42359277 440.73258018 438.44414711 C441.88849964 439.58773065 443.04818987 440.72751677 444.21183205 441.8632412 C452.57117083 450.02390071 460.42594554 457.81124158 460.80723572 470.13293457 C460.69807792 477.54474874 458.35450185 483.85608985 453.36973572 489.38293457 C448.0046957 494.22176597 441.69136543 496.65770612 434.49473572 497.00793457 C425.87193936 496.53784443 420.14530149 493.38600596 413.87657166 487.53601074 C413.09562449 486.80860703 413.09562449 486.80860703 412.2989006 486.06650829 C406.83834189 480.95077834 401.53613355 475.67643392 396.26036072 470.37121582 C395.24640222 469.35538444 394.23221693 468.33977938 393.21781921 467.3243866 C390.59193668 464.69474724 387.96907474 462.06211644 385.34690857 459.42877197 C382.6532706 456.72476991 379.95667872 454.02371689 377.26036072 451.3223877 C372.00231593 446.05372671 366.74747012 440.78189048 361.49473572 435.50793457 C357.57351366 437.01499133 354.324433 438.82491753 350.80723572 441.13293457 C333.39353811 452.09207586 312.92909624 459.13471321 292.49473572 461.50793457 C291.67102478 461.61750488 290.84731384 461.7270752 289.99864197 461.83996582 C250.88716147 466.3047467 209.92860191 455.38930366 178.69786072 431.35559082 C175.91803224 429.12151963 173.19749116 426.83455331 170.49473572 424.50793457 C169.56532166 423.71387207 168.63590759 422.91980957 167.67832947 422.10168457 C161.20795113 416.41423101 155.71774426 410.34988304 150.49473572 403.50793457 C149.81668884 402.6339502 149.13864197 401.75996582 148.44004822 400.85949707 C144.59064768 395.75192671 141.18229874 390.48195248 137.99473572 384.94543457 C137.64403015 384.33723877 137.29332458 383.72904297 136.93199158 383.10241699 C134.49473572 378.76549007 134.49473572 378.76549007 134.49473572 376.50793457 C133.72574007 376.51254354 132.95674442 376.5171525 132.16444588 376.52190113 C113.42602504 376.63247348 94.6876696 376.71513635 75.94899178 376.76699543 C66.8869719 376.79274274 57.82517021 376.82782655 48.76329041 376.88513184 C40.8620577 376.9350735 32.96098306 376.96725082 25.0595969 376.97837704 C20.87840566 376.98487767 16.69766652 377.00008269 12.51662064 377.03658485 C8.57505682 377.07071498 4.63412805 377.08095365 0.6924305 377.07347298 C-0.74825564 377.07483999 -2.18896469 377.08467127 -3.62952232 377.10396194 C-13.18009618 377.22549959 -21.09542111 376.4120742 -28.40957451 369.78163624 C-35.88004163 362.05286866 -35.94099165 353.07504138 -35.89294434 342.89529419 C-35.89712134 341.51370416 -35.90260086 340.13211756 -35.90926415 338.75053728 C-35.92368963 334.96832214 -35.91948317 331.18632546 -35.91209733 327.40409851 C-35.90736074 323.31946276 -35.91987988 319.23487393 -35.93011475 315.1502533 C-35.94729868 307.15355371 -35.94814357 299.15693271 -35.94290184 291.16021945 C-35.93885802 284.65924805 -35.94030622 278.15829985 -35.9456501 271.65732956 C-35.94639852 270.73155469 -35.94714694 269.80577983 -35.94791805 268.85195117 C-35.94944955 266.97114575 -35.9509879 265.09034034 -35.95253301 263.20953493 C-35.96625668 245.5770164 -35.96082138 227.94454227 -35.9493478 210.31202476 C-35.93941638 194.18849461 -35.95235475 178.06507923 -35.97628199 161.94156678 C-36.00067737 145.37753151 -36.01027973 128.81354969 -36.00362927 112.24949682 C-36.00013792 102.95341299 -36.00236353 93.65741742 -36.01988029 84.3613472 C-36.03460777 76.44750126 -36.03523062 68.53380572 -36.01780938 60.61996271 C-36.00930134 56.58424302 -36.00714489 52.54879194 -36.02246094 48.51308632 C-36.03632415 44.81432797 -36.0315244 41.11606794 -36.0122217 37.4173383 C-36.00669543 35.45469932 -36.02071967 33.49203487 -36.03557581 31.52944434 C-35.96007905 22.4375286 -34.61592019 14.57791617 -28.38026428 7.63293457 C-20.1334946 0.23825385 -10.59249093 -0.07361859 0 0 Z " fill="#E0EDFE" transform="translate(43.50526428222656,7.4920654296875)"/>
<path d="M0 0 C3.43351627 2.90156304 6.7371244 5.90832467 10 9 C10.8971875 9.83273438 11.794375 10.66546875 12.71875 11.5234375 C35.78025071 33.61324577 51.38909647 66.47817483 52.3359375 98.46875 C52.36607877 101.14734821 52.38285015 103.82167033 52.375 106.5 C52.37418427 107.55214691 52.37418427 107.55214691 52.37335205 108.62554932 C52.33128652 120.47086608 51.25115808 131.57926522 48 143 C47.70246826 144.10625732 47.70246826 144.10625732 47.39892578 145.23486328 C38.22322705 178.68930026 15.05666751 208.66064248 -15 226 C-36.70204679 237.96189802 -59.36547501 244.4207666 -84.1875 244.3125 C-84.87108582 244.31001251 -85.55467163 244.30752502 -86.25897217 244.30496216 C-96.79043733 244.24576207 -106.81379347 243.85022492 -117 241 C-117.79986328 240.77957031 -118.59972656 240.55914062 -119.42382812 240.33203125 C-139.56766512 234.5939978 -156.8456197 225.26535657 -173 212 C-173.95648438 211.21625 -174.91296875 210.4325 -175.8984375 209.625 C-182.03487582 204.33822237 -187.06883866 198.40691036 -192 192 C-192.64453125 191.2059375 -193.2890625 190.411875 -193.953125 189.59375 C-215.46139417 161.96524163 -224.5030577 125.9955886 -220.2734375 91.5 C-215.00375177 53.77627978 -196.63671394 21.60932076 -166.58203125 -1.890625 C-149.25990747 -14.43715511 -129.98113397 -23.00559574 -109 -27 C-107.94039063 -27.22429687 -106.88078125 -27.44859375 -105.7890625 -27.6796875 C-69.59905371 -34.47112874 -28.28876835 -23.36698263 0 0 Z " fill="#49508E" transform="translate(400,208)"/>
<path d="M0 0 C1.45415238 -0.00461568 2.90830009 -0.01097306 4.36243814 -0.01890898 C8.3359516 -0.03553385 12.30907844 -0.02738741 16.28259289 -0.0149641 C20.57645227 -0.00588782 24.87024668 -0.01989604 29.16409302 -0.03088379 C37.56661235 -0.04864569 45.96898855 -0.04483956 54.37151343 -0.03323323 C61.20139683 -0.0241906 68.03124018 -0.02297849 74.86112785 -0.02732849 C76.32058848 -0.02824789 76.32058848 -0.02824789 77.80953316 -0.02918586 C79.78625025 -0.03046479 81.76296733 -0.03176165 83.7396844 -0.03307623 C102.2635101 -0.04447504 120.78725654 -0.03137896 139.31106924 -0.00987476 C155.19890985 0.0079984 171.08663355 0.00488895 186.97447205 -0.0135498 C205.43468173 -0.03496399 223.89482202 -0.04337944 242.3550424 -0.03110075 C244.32408137 -0.02982658 246.29312035 -0.0285691 248.26215935 -0.02732849 C249.71528514 -0.02640284 249.71528514 -0.02640284 251.19776701 -0.02545848 C258.01847931 -0.02200744 264.83914751 -0.02782858 271.65985298 -0.0372467 C279.97333202 -0.04847402 288.28666003 -0.04541111 296.6001218 -0.02412373 C300.84027373 -0.01362361 305.08017398 -0.00947374 309.32032394 -0.02272034 C313.20460951 -0.03467153 317.08841097 -0.02803723 320.97265285 -0.00681013 C322.37492255 -0.0023556 323.77723347 -0.00458449 325.17947651 -0.01431328 C335.85445284 -0.08267403 343.97852385 1.42847143 351.99082947 8.80871582 C365.22257044 23.75886472 358.49473572 56.18511531 358.49473572 69.50793457 C228.47473572 69.50793457 98.45473572 69.50793457 -35.50526428 69.50793457 C-35.50526428 16.46793457 -35.50526428 16.46793457 -28.38026428 7.63293457 C-20.1334946 0.23825385 -10.59249093 -0.07361859 0 0 Z " fill="#49508E" transform="translate(43.50526428222656,7.4920654296875)"/>
<path d="M0 0 C0.82387207 0.03577148 1.64774414 0.07154297 2.49658203 0.10839844 C29.3762681 1.47457057 55.15039395 9.80162844 78 24 C78.97324219 24.57492188 79.94648438 25.14984375 80.94921875 25.7421875 C86.74736107 29.25180224 91.72834425 33.19550814 96.671875 37.828125 C98.70484614 39.72465512 100.79022994 41.4867945 102.9375 43.25 C129.80996007 66.82423057 146.08590959 105.59197332 148.83984375 140.7421875 C150.53383904 175.20053073 143.99843248 213.24172558 122 241 C123.58397238 244.86706355 126.05261051 247.26918083 129.01293945 250.17651367 C129.52213928 250.67958038 130.03133911 251.18264709 130.55596924 251.70095825 C131.65984316 252.79055235 132.76594646 253.87789147 133.87401772 254.96321678 C135.63269331 256.68699562 137.38408858 258.41786959 139.1335907 260.1509552 C144.10820707 265.07678574 149.09372332 269.99146839 154.08862305 274.89672852 C157.14700896 277.90122764 160.19531828 280.9156582 163.23784447 283.93621254 C164.39376392 285.07979608 165.55345415 286.2195822 166.71709633 287.35530663 C175.07643511 295.51596614 182.93120983 303.30330701 183.3125 315.625 C183.20334221 323.03681417 180.85976613 329.34815528 175.875 334.875 C170.50995998 339.7138314 164.19662971 342.14977155 157 342.5 C148.37720364 342.02990986 142.65056577 338.87807139 136.38183594 333.02807617 C135.60088877 332.30067246 135.60088877 332.30067246 134.80416489 331.55857372 C129.34360617 326.44284377 124.04139784 321.16849935 118.765625 315.86328125 C117.7516665 314.84744987 116.73748121 313.83184481 115.7230835 312.81645203 C113.09720097 310.18681267 110.47433902 307.55418187 107.85217285 304.9208374 C105.15853488 302.21683534 102.461943 299.51578232 99.765625 296.81445312 C94.50758022 291.54579214 89.2527344 286.27395591 84 281 C80.07877794 282.50705675 76.82969728 284.31698296 73.3125 286.625 C55.89880239 297.58414129 35.43436052 304.62677864 15 307 C13.76443359 307.16435547 13.76443359 307.16435547 12.50390625 307.33203125 C-26.60757424 311.79681213 -67.56613381 300.88136909 -98.796875 276.84765625 C-101.57670348 274.61358506 -104.29724456 272.32661874 -107 270 C-107.92941406 269.2059375 -108.85882813 268.411875 -109.81640625 267.59375 C-116.28678459 261.90629644 -121.77699145 255.84194847 -127 249 C-127.67804688 248.12601563 -128.35609375 247.25203125 -129.0546875 246.3515625 C-138.66607458 233.59871038 -152 213.50999343 -152 197 C-152.99854004 197.02094727 -153.99708008 197.04189453 -155.02587891 197.06347656 C-158.74936443 197.136167 -162.4727879 197.1819042 -166.19677734 197.21972656 C-167.80495774 197.23977627 -169.41306583 197.26702364 -171.02099609 197.30175781 C-173.3397002 197.35057264 -175.65743625 197.37303428 -177.9765625 197.390625 C-179.04567368 197.42159271 -179.04567368 197.42159271 -180.13638306 197.45318604 C-185.22737906 197.45544713 -188.08765819 196.20986807 -192 193 C-193.27806656 190.3435228 -193.36424289 187.91394309 -193 185 C-191.23535939 182.14006522 -190.00434303 180.50217151 -187 179 C-184.74879258 178.91426606 -182.49500697 178.89287812 -180.2421875 178.90234375 C-179.24761032 178.90446617 -179.24761032 178.90446617 -178.23294067 178.90663147 C-176.11358137 178.91223246 -173.99432741 178.924785 -171.875 178.9375 C-170.43880361 178.94251488 -169.00260556 178.94707781 -167.56640625 178.95117188 C-164.04423655 178.96220218 -160.52212855 178.97946741 -157 179 C-157.165 178.030625 -157.33 177.06125 -157.5 176.0625 C-158.13396273 171.70512237 -158.0896672 167.39369296 -158 163 C-158.55043976 163.00888245 -159.10087952 163.01776489 -159.66799927 163.0269165 C-165.41072172 163.11559291 -171.15324883 163.17581803 -176.89648438 163.21972656 C-179.03816634 163.23980888 -181.1797937 163.26708037 -183.32128906 163.30175781 C-186.40443415 163.35042398 -189.48685262 163.3730029 -192.5703125 163.390625 C-193.52366486 163.41127014 -194.47701721 163.43191528 -195.45925903 163.45318604 C-201.2846709 163.45514054 -204.56498734 162.88411566 -209 159 C-210.015625 156.81640625 -210.015625 156.81640625 -210.25 154.5625 C-210.35828125 153.82128906 -210.4665625 153.08007812 -210.578125 152.31640625 C-209.83854273 149.35307998 -208.32631939 147.94146773 -205.97302246 146.06495667 C-202.02820588 143.93570634 -197.72561393 144.39597263 -193.3515625 144.51171875 C-192.33903412 144.51879349 -191.32650574 144.52586823 -190.28329468 144.53315735 C-187.06309783 144.56104921 -183.84466744 144.62377992 -180.625 144.6875 C-178.4362231 144.71258951 -176.24741884 144.73540154 -174.05859375 144.75585938 C-168.70513088 144.8108584 -163.35269166 144.89443225 -158 145 C-158.00580078 144.32598145 -158.01160156 143.65196289 -158.01757812 142.95751953 C-158.02208984 142.06661621 -158.02660156 141.17571289 -158.03125 140.2578125 C-158.03705078 139.37754395 -158.04285156 138.49727539 -158.04882812 137.59033203 C-157.98699612 134.31014418 -157.5615681 131.2290166 -157 128 C-157.64026123 128.02618408 -158.28052246 128.05236816 -158.94018555 128.0793457 C-161.85570502 128.18361281 -164.77083198 128.24841753 -167.6875 128.3125 C-169.19860352 128.3753418 -169.19860352 128.3753418 -170.74023438 128.43945312 C-178.22485243 128.56296167 -178.22485243 128.56296167 -182.16796875 125.69921875 C-184.59232259 122.12730296 -184.75617692 120.23459077 -184 116 C-182.34026191 113.4059471 -181.63126881 112.42571538 -179 111 C-174.56842563 110.233289 -170.17705257 110.20923533 -165.6875 110.1875 C-164.46998047 110.16236328 -163.25246094 110.13722656 -161.99804688 110.11132812 C-158.99837313 110.05251099 -156.00015702 110.01618961 -153 110 C-152.65066406 109.01257813 -152.30132812 108.02515625 -151.94140625 107.0078125 C-151.48183786 105.71351786 -151.02219877 104.41924833 -150.5625 103.125 C-150.33240234 102.47402344 -150.10230469 101.82304687 -149.86523438 101.15234375 C-148.11328125 96.2265625 -148.11328125 96.2265625 -147 94 C-148.21582764 94.0314209 -149.43165527 94.0628418 -150.68432617 94.09521484 C-155.20342416 94.20397113 -159.722407 94.27275325 -164.24243164 94.32958984 C-166.19705671 94.35972831 -168.15154692 94.4006477 -170.10571289 94.45263672 C-172.91846999 94.52558389 -175.72943706 94.55948459 -178.54296875 94.5859375 C-179.84949654 94.63238907 -179.84949654 94.63238907 -181.18241882 94.67977905 C-187.09773768 94.68304636 -187.09773768 94.68304636 -189.67495728 92.73199463 C-191.86459568 90.22407424 -192.95900612 88.20087 -193.625 84.9375 C-192.73904874 80.7735291 -191.43265223 79.53464873 -188 77 C-184.28222887 76.39497108 -180.64272344 76.61246028 -176.890625 76.78515625 C-174.66931338 76.82229947 -172.44795485 76.85671897 -170.2265625 76.88867188 C-166.73761618 76.96497724 -163.25334843 77.06235943 -159.76660156 77.20874023 C-147.37989205 78.30760996 -147.37989205 78.30760996 -136.0456543 74.5914917 C-132.63764187 70.86321169 -130.76807428 66.68422495 -129 62 C-128.67 61.67 -128.34 61.34 -128 61 C-128.94103073 60.99635437 -129.88206146 60.99270874 -130.85160828 60.98895264 C-139.72409175 60.95199603 -148.59622836 60.89421626 -157.46844769 60.81609726 C-162.02967954 60.77660402 -166.59071781 60.74442468 -171.15209961 60.72900391 C-175.55491651 60.71384937 -179.95720127 60.67942558 -184.35978127 60.63169098 C-186.03862696 60.6168647 -187.71754863 60.60895827 -189.39645958 60.60811615 C-191.75015227 60.60574839 -194.10237203 60.5786869 -196.45581055 60.54589844 C-197.49483017 60.55344398 -197.49483017 60.55344398 -198.55484009 60.56114197 C-203.27882734 60.45945706 -205.67377844 59.32605165 -209 56 C-210.44430855 53.11138291 -210.37688506 51.20352299 -210 48 C-207.44975635 44.89835231 -205.82300753 43.27433584 -202 42 C-199.11576775 41.9256069 -196.25628947 41.90850527 -193.37280273 41.9375 C-191.54512152 41.94694627 -189.71743893 41.95612982 -187.88975525 41.96508789 C-186.91978041 41.97138214 -185.94980556 41.97767639 -184.95043755 41.98416138 C-179.80745937 42.01116234 -174.6645136 42.00125222 -169.52148438 41.99609375 C-162.97938056 41.98989268 -156.43813967 41.99510696 -149.89624023 42.05126953 C-144.60789424 42.09568996 -139.32113582 42.0959981 -134.03270149 42.06713867 C-132.02297105 42.06406864 -130.01314819 42.07685468 -128.00362968 42.10620117 C-114.98134919 42.60581897 -114.98134919 42.60581897 -103.91210938 36.60327148 C-102.58384905 35.08976824 -101.27632641 33.55754886 -100 32 C-97.78209972 30.19575559 -95.45922394 28.61881425 -93.0625 27.0625 C-92.43972168 26.65483398 -91.81694336 26.24716797 -91.17529297 25.82714844 C-63.77800544 8.26977908 -32.75009602 -1.44868365 0 0 Z M-87 44 C-87.94101563 44.71929687 -88.88203125 45.43859375 -89.8515625 46.1796875 C-114.97702622 66.06773061 -132.70297328 93.48571349 -139 125 C-139.14953125 125.71994141 -139.2990625 126.43988281 -139.453125 127.18164062 C-146.77858714 163.39847282 -138.74343178 199.11746434 -119.00390625 230.13671875 C-117.0967305 232.85275906 -115.10138894 235.43122028 -113 238 C-112.31502441 238.84087158 -112.31502441 238.84087158 -111.61621094 239.69873047 C-105.89167597 246.68191726 -100.18065533 253.46696079 -93 259 C-92.50757813 259.39219727 -92.01515625 259.78439453 -91.5078125 260.18847656 C-61.22708328 284.19626129 -25.15889758 293.39926458 13.10595703 289.69970703 C18.85605388 288.89581994 24.41761362 287.57763093 30 286 C31.10843262 285.70246826 31.10843262 285.70246826 32.23925781 285.39892578 C65.68697744 276.2230673 95.66565669 253.05590619 113 223 C125.19271722 200.57734341 131.23477501 178.15877906 131.3125 152.6875 C131.31626648 152.00185974 131.32003296 151.31621948 131.32391357 150.60980225 C131.42654668 113.7247901 115.2730404 81.42860313 89.8125 55.4375 C64.29238354 30.0572198 29.36847375 17.10817633 -6.375 16.5625 C-35.28038046 16.70652418 -64.09196357 26.37370924 -87 44 Z " fill="#BFD9EF" transform="translate(321,162)"/>
<path d="M0 0 C4.29022627 0.49424814 6.35457299 2.96771809 9.33178711 5.92773438 C9.85103256 6.44011658 10.37027802 6.95249878 10.90525818 7.48040771 C12.62038482 9.17723039 14.3241893 10.88491652 16.02734375 12.59375 C17.21997679 13.78182018 18.41298068 14.96951819 19.6063385 16.15686035 C22.10875806 18.65033962 24.60540781 21.14942897 27.09838867 23.65234375 C30.27846297 26.84385826 33.47401906 30.01933268 36.67441463 33.19045258 C39.14463669 35.64222808 41.60537245 38.10335853 44.06353951 40.56721497 C45.2369158 41.74074371 46.41336341 42.91121048 47.59303093 44.07841492 C63.93009232 60.26719397 63.93009232 60.26719397 64.3125 72.625 C64.20334221 80.03681417 61.85976613 86.34815528 56.875 91.875 C51.50995998 96.7138314 45.19662971 99.14977155 38 99.5 C29.37349042 99.02970742 23.65007118 95.87727819 17.38183594 90.02148438 C16.86120449 89.53633614 16.34057304 89.0511879 15.80416489 88.5513382 C10.36246188 83.45513341 5.04752372 78.2298397 -0.234375 72.96875 C-0.97911449 72.22825157 -0.97911449 72.22825157 -1.73889923 71.47279358 C-4.34809238 68.8783684 -6.95457794 66.28126193 -9.55859375 63.68164062 C-12.24182993 61.00396919 -14.93428935 58.33576485 -17.62878036 55.66942596 C-19.71320494 53.6035578 -21.79095634 51.53107742 -23.86688995 49.4566803 C-24.85800539 48.46858953 -25.85161912 47.48299808 -26.84777069 46.49998474 C-28.22811594 45.13660907 -29.59821816 43.76288604 -30.96777344 42.38867188 C-32.13925934 41.22265442 -32.13925934 41.22265442 -33.33441162 40.03308105 C-35 38 -35 38 -35 35 C-32.95582146 33.23704721 -30.92441515 31.64950989 -28.75 30.0625 C-17.35980685 21.41151858 -8.21273566 11.69692654 0 0 Z " fill="#A7714E" transform="translate(440,405)"/>
<path d="M0 0 C3.44541914 1.03298414 4.8772338 2.83022145 7.09765625 5.62890625 C7.82465383 8.69132909 7.76448293 11.67844998 7.71911621 14.81433105 C7.72869944 16.20589708 7.72869944 16.20589708 7.73847628 17.62557554 C7.7537433 20.73584792 7.73325317 23.84484999 7.71289062 26.95507812 C7.71639129 29.18413211 7.72204925 31.41318359 7.72970581 33.64222717 C7.74397104 39.69802428 7.72687482 45.75336827 7.70342064 51.80912209 C7.68333675 58.14223704 7.68918992 64.47533272 7.69152832 70.80847168 C7.69147472 81.44450322 7.67182659 92.08033998 7.63964844 102.71630859 C7.6065574 113.65808568 7.5923902 124.59967778 7.59863281 135.54150391 C7.60611965 148.72900377 7.59874719 161.91640562 7.57698059 175.10389709 C7.56879927 180.14047889 7.5660984 185.1770199 7.56767273 190.21360779 C7.56855075 196.14306753 7.55435743 202.07230576 7.5284462 208.00170708 C7.52127527 210.17977767 7.51920521 212.35787181 7.52256393 214.53595161 C7.52626996 217.5053697 7.51156135 220.4741382 7.49206543 223.44348145 C7.50005732 224.74138713 7.50005732 224.74138713 7.50821066 226.06551313 C7.45522674 230.73171479 7.14251898 233.84570848 4.09765625 237.62890625 C0.95894437 239.19826219 -1.44090197 238.98091728 -4.90234375 238.62890625 C-7.64391953 236.64833637 -9.56829158 235.06272755 -10.35973847 231.66567314 C-10.54634703 229.21770138 -10.56378822 226.81579635 -10.53053284 224.36082458 C-10.54117442 222.95594956 -10.54117442 222.95594956 -10.55203098 221.52269322 C-10.56964161 218.38246929 -10.55149014 215.24347805 -10.53344727 212.10327148 C-10.53858485 209.85288936 -10.54586491 207.60251125 -10.55513 205.35214233 C-10.57367132 199.23857739 -10.56068827 193.12544759 -10.54103971 187.01190066 C-10.52467665 180.61958719 -10.53346274 174.22730178 -10.53855896 167.8349762 C-10.5430822 157.10058927 -10.52729913 146.3664187 -10.49926758 135.63208008 C-10.47042346 124.58643358 -10.46334988 113.54103516 -10.47875977 102.49536133 C-10.49730418 89.18465232 -10.4955893 75.87412356 -10.47654533 62.56340218 C-10.46966385 57.47852581 -10.47071854 52.3937416 -10.47809029 47.3088665 C-10.48573742 41.32437135 -10.47367807 35.34023461 -10.44624138 29.35580063 C-10.4393403 27.15634666 -10.4392779 24.95685932 -10.44645691 22.75740623 C-10.45511141 19.76120227 -10.43926311 16.76611462 -10.41700745 13.77000427 C-10.42524821 12.89403908 -10.43348898 12.01807388 -10.44197947 11.11556429 C-10.38946424 7.30050496 -10.35489326 5.27151112 -8.11627102 2.09274387 C-5.45228229 0.33132787 -3.16399237 0.10693414 0 0 Z " fill="#B1CBDD" transform="translate(86.90234375,102.37109375)"/>
<path d="M0 0 C1.04769058 -0.00394272 2.09538116 -0.00788544 3.17481995 -0.01194763 C6.63518197 -0.01865621 10.09422269 0.01050196 13.55444336 0.04077148 C15.95909876 0.04502168 18.36375825 0.04735017 20.76841736 0.0478363 C25.80641285 0.05400219 30.84396383 0.07670647 35.88183594 0.11230469 C42.34396615 0.15760118 48.80569388 0.1723319 55.26796818 0.1760416 C60.23245727 0.18046744 65.19686166 0.1957661 70.16131401 0.21491814 C72.54438009 0.22380538 74.92745521 0.23053293 77.31053352 0.23507881 C80.63816694 0.24410861 83.96543427 0.26648842 87.29296875 0.29296875 C88.28061218 0.29363342 89.26825562 0.2942981 90.28582764 0.29498291 C91.64632988 0.3099456 91.64632988 0.3099456 93.03431702 0.32521057 C93.82056489 0.32986108 94.60681276 0.33451159 95.41688633 0.33930302 C97.90555572 0.63825846 99.46938989 1.25630833 101.58178711 2.59936523 C104.08210365 6.34984005 104.11782265 8.15792789 103.58178711 12.59936523 C101.55880382 15.50297502 99.94905472 17.31090288 96.39518738 18.06068802 C93.61473976 18.25229421 90.87465156 18.27473304 88.08764648 18.24633789 C87.03180862 18.25509949 85.97597076 18.26386108 84.88813782 18.27288818 C81.40018546 18.29488361 77.91350222 18.28032772 74.42553711 18.26342773 C72.00085202 18.26679579 69.57616857 18.27164832 67.15148926 18.27792358 C62.07063721 18.28529516 56.99022477 18.27457946 51.90942383 18.2512207 C45.39555623 18.22273366 38.88271866 18.23913598 32.36888885 18.26908302 C27.36228672 18.28714774 22.35592894 18.28140156 17.34931946 18.26844406 C14.94753396 18.26510781 12.5457263 18.26920475 10.14396667 18.28084183 C6.78735567 18.29353606 3.43241432 18.27419082 0.07592773 18.24633789 C-0.91747116 18.25645905 -1.91087006 18.2665802 -2.93437195 18.27700806 C-7.56166 18.20584599 -9.73374587 18.10921717 -13.53503418 15.27767944 C-15.41821289 12.59936523 -15.41821289 12.59936523 -16.04321289 9.09936523 C-14.40703668 -0.06322156 -7.78761135 -0.11720924 0 0 Z " fill="#F7C64E" transform="translate(220.418212890625,289.400634765625)"/>
<path d="M0 0 C0.90138702 -0.0071553 1.80277405 -0.01431061 2.73147583 -0.02168274 C5.70488476 -0.03856355 8.67678483 -0.01917224 11.65014648 0.00219727 C13.71850204 0.00136858 15.78685754 -0.00109077 17.85520935 -0.00511169 C22.18704076 -0.00796918 26.51835497 0.00672835 30.85009766 0.03417969 C36.4044224 0.0682834 41.9578236 0.06223656 47.51219273 0.04351711 C51.78187264 0.03295303 56.05133734 0.04187926 60.32099724 0.05690193 C62.36913349 0.0620871 64.41729218 0.0615979 66.46542549 0.05535698 C69.32640116 0.04991116 72.18605044 0.07025887 75.046875 0.09765625 C76.31794853 0.08786743 76.31794853 0.08786743 77.61470032 0.07788086 C81.37890977 0.13922587 83.34612801 0.19626634 86.47666931 2.41835022 C88.25219557 5.06923658 88.52196408 7.37347252 88.68530273 10.53344727 C87.50380981 13.94453167 84.98787683 15.86523537 81.95874023 17.63110352 C78.99383356 18.32861353 76.13081213 18.30590988 73.09521484 18.26220703 C72.2245488 18.26936234 71.35388275 18.27651764 70.45683289 18.28388977 C67.59104264 18.30074031 64.72682464 18.28139743 61.86108398 18.26000977 C59.86381399 18.26083872 57.86654407 18.26329913 55.86927795 18.26731873 C51.68884685 18.27017413 47.5089523 18.25549909 43.32861328 18.22802734 C37.97282248 18.1939231 32.61798952 18.19997266 27.26215267 18.21868992 C23.13997933 18.2292622 19.01802857 18.22032034 14.89587593 18.2053051 C12.92113468 18.20012601 10.94637016 18.20060177 8.971632 18.20685005 C6.21153703 18.21230585 3.45281013 18.1919165 0.69287109 18.16455078 C-0.12129272 18.17107666 -0.93545654 18.17760254 -1.77429199 18.18432617 C-5.72257846 18.11782534 -7.61273539 17.90521192 -11.02464294 15.72276306 C-13.41927088 13.23902578 -13.96065626 12.23562979 -14.41625977 8.81860352 C-14.04125977 5.63110352 -14.04125977 5.63110352 -12.082901 2.97132874 C-7.96249125 -0.19889617 -5.06164169 -0.07000787 0 0 Z " fill="#69CAA6" transform="translate(142.041259765625,136.368896484375)"/>
<path d="M0 0 C1.30271347 -0.01226624 1.30271347 -0.01226624 2.63174438 -0.02478027 C5.51392931 -0.04964942 8.3960649 -0.06615487 11.27832031 -0.08056641 C12.26192787 -0.08589008 13.24553543 -0.09121376 14.25894928 -0.09669876 C19.4659192 -0.12343796 24.67286509 -0.14280971 29.87988281 -0.15722656 C35.25808789 -0.17386918 40.63567956 -0.21864168 46.0136528 -0.26959801 C50.14866844 -0.30325818 54.28353834 -0.31480271 58.41867828 -0.32045364 C60.40102064 -0.32717035 62.38335328 -0.34240327 64.36556244 -0.36634445 C67.14265351 -0.39797019 69.91808856 -0.39803664 72.6953125 -0.390625 C73.51216522 -0.40703033 74.32901794 -0.42343567 75.17062378 -0.44033813 C79.23665487 -0.39598748 81.86169702 -0.02758301 85.12432861 2.5105896 C87.60644531 5.19287109 87.60644531 5.19287109 88.23144531 8.69287109 C87.48817782 12.85516903 86.70959868 14.33157244 83.60644531 17.19287109 C80.64094257 17.93797117 77.73949341 17.87621227 74.69458008 17.83984375 C73.34512802 17.85298615 73.34512802 17.85298615 71.96841431 17.86639404 C68.99440279 17.88840136 66.02187822 17.87382927 63.04785156 17.85693359 C60.98046076 17.86030164 58.91307189 17.86515416 56.84568787 17.87142944 C52.51208653 17.87880284 48.17900043 17.86808108 43.84545898 17.84472656 C38.29220025 17.81625666 32.74015062 17.83262896 27.18693638 17.86258888 C22.91719976 17.88066426 18.64774935 17.87490234 14.37800407 17.86194992 C12.33068638 17.85861567 10.28334267 17.86270366 8.23605537 17.87434769 C5.37257302 17.88705812 2.5110422 17.86767575 -0.35229492 17.83984375 C-1.19765305 17.8499649 -2.04301117 17.86008606 -2.91398621 17.87051392 C-7.22328107 17.79297873 -8.90658576 17.57103476 -12.42347717 14.8399353 C-14.39355469 12.19287109 -14.39355469 12.19287109 -14.95605469 9.19287109 C-14.26997812 5.53379605 -12.96621155 3.84119434 -10.39355469 1.19287109 C-7.14522784 -0.43129233 -3.57075071 0.01843896 0 0 Z " fill="#68CAA6" transform="translate(125.3935546875,101.80712890625)"/>
<path d="M0 0 C0.90781219 -0.00073013 1.81562439 -0.00146027 2.75094604 -0.00221252 C5.74367574 0.00126359 8.73483803 0.04012612 11.72729492 0.0793457 C13.80522308 0.08867373 15.88316225 0.09578989 17.96110535 0.1007843 C23.42433144 0.11985473 28.88689055 0.16895655 34.34985352 0.2243042 C39.92674741 0.27549533 45.50374931 0.29829809 51.08081055 0.32348633 C62.01925428 0.37707473 72.95720346 0.46238859 83.89526367 0.56762695 C83.50597309 1.01066603 83.11668251 1.4537051 82.71559525 1.9101696 C80.31437576 4.6718192 78.02689449 7.37526784 75.9574585 10.39944458 C72.81918324 14.72335408 70.45272066 17.19491721 65.1595459 18.46160889 C60.55596726 18.91693674 55.96639317 18.80058566 51.34838867 18.68481445 C49.64688571 18.67630071 47.94535943 18.67165558 46.24383545 18.67068481 C42.69247798 18.65840264 39.14366828 18.61324985 35.59301758 18.54174805 C31.04761308 18.45092364 26.50449926 18.42167958 21.95827103 18.41427422 C18.45102479 18.40541004 14.94425629 18.37479581 11.43721771 18.33652115 C9.76115579 18.31880292 8.08504342 18.30532057 6.40891266 18.2961998 C4.06788263 18.27806554 1.72889969 18.23326408 -0.61157227 18.18041992 C-1.29946335 18.17909058 -1.98735443 18.17776123 -2.6960907 18.1763916 C-7.39061797 18.03045309 -9.79367375 16.8668681 -13.10473633 13.56762695 C-14.54904488 10.67900986 -14.48162139 8.77114994 -14.10473633 5.56762695 C-9.98482966 -0.04760869 -6.46207585 -0.13640084 0 0 Z " fill="#67CAA4" transform="translate(125.104736328125,204.432373046875)"/>
<path d="M0 0 C0.64604187 -0.00700928 1.29208374 -0.01401855 1.95770264 -0.02124023 C4.08755834 -0.03880645 6.21607868 -0.02720288 8.34594727 -0.01367188 C9.83041132 -0.01636756 11.31487365 -0.02025062 12.79933167 -0.02526855 C15.90887277 -0.03116195 19.01795384 -0.02260766 22.12744141 -0.00390625 C26.10676749 0.01886412 30.08501328 0.00577258 34.06429958 -0.01819611 C37.12962427 -0.03267583 40.19469443 -0.02803797 43.26002693 -0.01768494 C44.72679841 -0.01502259 46.19359324 -0.01827013 47.66033745 -0.02760315 C49.71428139 -0.03780337 51.76649678 -0.02222274 53.8203125 0 C54.98739243 0.00318237 56.15447235 0.00636475 57.35691833 0.00964355 C61.15565825 0.62848622 62.82386442 1.75855189 65.47485352 4.51757812 C66.41812528 9.9199528 66.41812528 9.9199528 65.47485352 12.51757812 C62.65331187 15.94262873 60.8830868 17.29714596 56.45265198 17.99064636 C52.57916337 18.18059008 48.72231503 18.21363858 44.84594727 18.18164062 C43.40918061 18.18501246 41.97241673 18.18986815 40.53565979 18.19613647 C37.53212182 18.20348835 34.52932982 18.19285679 31.52587891 18.16943359 C27.68314344 18.1409191 23.84215207 18.1573745 19.99948025 18.18729591 C17.03533362 18.20539371 14.07159829 18.19960037 11.10743904 18.18665695 C9.69090631 18.18333104 8.27433575 18.18738141 6.85784721 18.19905472 C4.87659328 18.21180324 2.89520765 18.18891432 0.9140625 18.16455078 C-0.21145523 18.16057281 -1.33697296 18.15659485 -2.49659729 18.15249634 C-6.46690855 17.32014303 -7.98124808 15.60173319 -10.52514648 12.51757812 C-11.4325279 9.49109478 -10.98947781 7.76789743 -10.52514648 4.51757812 C-7.45354727 0.33912719 -5.05124879 0.01378305 0 0 Z " fill="#68CAA5" transform="translate(147.525146484375,170.482421875)"/>
<path d="M0 0 C1.1016449 -0.01606293 2.20328979 -0.03212585 3.33831787 -0.04867554 C8.38374264 -0.09307976 13.42903491 -0.13419594 18.47460938 -0.15722656 C21.13669014 -0.17054996 23.796955 -0.20106092 26.45898438 -0.23925781 C30.29352933 -0.29400982 34.12703089 -0.3159002 37.96191406 -0.33056641 C39.74344879 -0.36457047 39.74344879 -0.36457047 41.56097412 -0.39926147 C50.77533148 -0.375693 50.77533148 -0.375693 54.47998047 2.59448242 C57.51544517 6.1037645 57.51544517 6.1037645 57.35253906 9.25537109 C56.65820617 13.62966829 56.14695391 14.56595957 52.72753906 17.19287109 C50.03356934 17.69407654 50.03356934 17.69407654 46.92089844 17.69458008 C45.75288696 17.70396103 44.58487549 17.71334198 43.38146973 17.7230072 C42.12411011 17.71177322 40.86675049 17.70053925 39.57128906 17.68896484 C38.2768689 17.69042007 36.98244873 17.69187531 35.64880371 17.69337463 C32.91165796 17.69475759 30.17503687 17.68221925 27.43798828 17.65942383 C23.93397327 17.63103847 20.43082969 17.63377738 16.92675018 17.64651394 C13.57900554 17.65515135 10.23151902 17.64002173 6.88378906 17.62646484 C5.62642944 17.62940048 4.36906982 17.63233612 3.0736084 17.63536072 C1.90559692 17.62267654 0.73758545 17.60999237 -0.46582031 17.59692383 C-1.49300171 17.59152084 -2.52018311 17.58611786 -3.57849121 17.58055115 C-6.65900234 17.13724523 -8.02942751 16.31267589 -10.27246094 14.19287109 C-11.33624996 11.54447966 -11.52124129 9.0289671 -11.27246094 6.19287109 C-8.08787153 1.03163999 -5.84445657 0.07730378 0 0 Z " fill="#E66274" transform="translate(301.2724609375,357.80712890625)"/>
<path d="M0 0 C1.12474228 -0.00938095 2.24948456 -0.0187619 3.40830994 -0.02842712 C4.61878494 -0.01719315 5.82925995 -0.00595917 7.07641602 0.00561523 C8.32407242 0.00416 9.57172882 0.00270477 10.85719299 0.00120544 C13.49633807 0.00286585 16.13404317 0.01235681 18.77294922 0.03515625 C22.14684005 0.06351254 25.51982507 0.06081066 28.89378262 0.04806614 C32.12138494 0.03941648 35.34884195 0.05456543 38.57641602 0.06811523 C39.78486679 0.0651796 40.99331757 0.06224396 42.23838806 0.05921936 C43.93022972 0.07824562 43.93022972 0.07824562 45.65625 0.09765625 C46.645681 0.10305923 47.635112 0.10846222 48.65452576 0.11402893 C51.87515636 0.56999644 53.77423985 1.60101181 56.39282227 3.50170898 C57.9621782 6.64042086 57.74483329 9.0402672 57.39282227 12.50170898 C55.73633333 15.10297335 55.0238563 16.07590379 52.39282227 17.50170898 C48.06525415 18.27166176 43.77915108 18.22589096 39.39282227 18.20092773 C38.12438477 18.20808304 36.85594727 18.21523834 35.54907227 18.22261047 C32.86850894 18.23039154 30.19028064 18.2278241 27.51000977 18.20849609 C24.08283279 18.18560076 20.6581338 18.21239968 17.23120117 18.25355816 C13.9517015 18.28534369 10.67242634 18.27213762 7.39282227 18.26342773 C6.16563477 18.27871017 4.93844727 18.29399261 3.67407227 18.30973816 C-4.55160989 18.19702437 -4.55160989 18.19702437 -7.51904297 16.24234009 C-10.04022049 13.42342256 -10.60450319 11.6568328 -10.66967773 7.87670898 C-8.81244461 1.97726258 -6.12158054 0.00102891 0 0 Z " fill="#E96274" transform="translate(300.607177734375,255.498291015625)"/>
<path d="M0 0 C1.24624146 -0.00619858 2.49248291 -0.01239716 3.77648926 -0.01878357 C7.08248188 -0.02769722 10.38773121 -0.01658171 13.69366455 0.00030518 C15.71717932 0.00390346 17.73977805 -0.01002972 19.76318359 -0.03051758 C23.65505879 -0.06734995 27.5454842 -0.07003255 31.4375 -0.0625 C32.64281372 -0.07575821 33.84812744 -0.08901642 35.08996582 -0.10267639 C44.38455341 0.00090105 44.38455341 0.00090105 47.47851562 2.88696289 C49.79625713 6.45559547 49.96473502 8.38889014 49.21875 12.56640625 C47.55867769 15.13843854 46.82560663 16.13805905 44.21875 17.56640625 C39.89156224 18.33776458 35.60490099 18.29058722 31.21875 18.265625 C29.9503125 18.2727803 28.681875 18.27993561 27.375 18.28730774 C24.69443668 18.29508881 22.01620837 18.29252137 19.3359375 18.27319336 C15.90876052 18.25029803 12.48406154 18.27709695 9.05712891 18.31825542 C5.77762924 18.35004095 2.49835407 18.33683489 -0.78125 18.328125 C-2.0084375 18.34340744 -3.235625 18.35868988 -4.5 18.37443542 C-12.72692104 18.26170466 -12.72692104 18.26170466 -15.69091797 16.30703735 C-18.19494335 13.50386771 -18.77681801 11.69493394 -18.90625 7.94140625 C-15.87929007 -1.13947353 -8.17721548 -0.03364926 0 0 Z " fill="#2E3360" transform="translate(325.78125,33.43359375)"/>
<path d="M0 0 C0.92468582 -0.01283524 1.84937164 -0.02567047 2.80207825 -0.03889465 C3.80413803 -0.04628159 4.80619781 -0.05366852 5.83862305 -0.0612793 C6.8671489 -0.06935104 7.89567474 -0.07742279 8.95536804 -0.08573914 C11.13510448 -0.09958571 13.31486266 -0.11030529 15.49462891 -0.11816406 C18.82650907 -0.13537494 22.15739666 -0.1792564 25.48901367 -0.22338867 C27.60554283 -0.23351561 29.72208042 -0.24203171 31.83862305 -0.2487793 C32.83461014 -0.26628738 33.83059723 -0.28379547 34.85676575 -0.30183411 C39.2134143 -0.28818986 41.82275419 -0.24009033 45.64404297 1.98876953 C48.28454377 5.03979553 48.5378418 7.17899417 48.5378418 11.17700195 C47.1922178 14.12455927 46.45229636 15.71977467 43.5378418 17.17700195 C41.95610741 17.28723352 40.36989351 17.33609981 38.78442383 17.35400391 C37.79644806 17.36683914 36.80847229 17.37967438 35.79055786 17.39289856 C34.71973969 17.40028549 33.64892151 17.40767242 32.5456543 17.4152832 C30.89942581 17.42739082 30.89942581 17.42739082 29.21994019 17.43974304 C26.89477115 17.45358985 24.56958175 17.46430932 22.24438477 17.47216797 C18.6842617 17.48939828 15.12506285 17.53328223 11.56518555 17.57739258 C9.30868197 17.58751767 7.05217049 17.59603435 4.7956543 17.6027832 C3.72888458 17.62029129 2.66211487 17.63779938 1.5630188 17.65583801 C-5.79668618 17.63418283 -5.79668618 17.63418283 -9.09936523 15.36523438 C-11.0833414 12.17957004 -11.52796363 9.92791103 -11.4621582 6.17700195 C-7.9269698 1.78190286 -5.52619834 0.06671474 0 0 Z " fill="#F4C44F" transform="translate(224.462158203125,357.822998046875)"/>
<path d="M0 0 C0.99033234 0.00707474 1.98066467 0.01414948 3.00100708 0.0214386 C6.14989211 0.04932532 9.2969691 0.11205447 12.4453125 0.17578125 C14.58591174 0.20087146 16.72653897 0.22368336 18.8671875 0.24414062 C24.10225429 0.29913354 29.33597734 0.38536782 34.5703125 0.48828125 C34.5703125 6.09828125 34.5703125 11.70828125 34.5703125 17.48828125 C28.09247342 17.56242886 21.61488129 17.61688262 15.13671875 17.65307617 C12.93289894 17.66816416 10.72910915 17.68863701 8.52539062 17.71459961 C5.35799753 17.75098183 2.19100139 17.76800757 -0.9765625 17.78125 C-2.45488556 17.80447578 -2.45488556 17.80447578 -3.96307373 17.82817078 C-4.8837262 17.82839737 -5.80437866 17.82862396 -6.75292969 17.82885742 C-7.96538361 17.83885017 -7.96538361 17.83885017 -9.20233154 17.8490448 C-11.99237034 17.39714384 -13.36109321 16.38060466 -15.4296875 14.48828125 C-16.25 12.40234375 -16.25 12.40234375 -16.5546875 10.11328125 C-16.68101563 9.36304688 -16.80734375 8.6128125 -16.9375 7.83984375 C-16.28320952 4.80997554 -14.77604496 3.44992044 -12.39175415 1.55200195 C-8.50818988 -0.55344524 -4.31101368 -0.11669543 0 0 Z " fill="#67CAA5" transform="translate(127.4296875,306.51171875)"/>
<path d="M0 0 C1.6207972 0.01061211 1.6207972 0.01061211 3.27433777 0.0214386 C6.7187582 0.04938278 10.1615413 0.11212492 13.60546875 0.17578125 C15.94333587 0.20086392 18.28122851 0.22367714 20.61914062 0.24414062 C26.34430676 0.29920949 32.06852078 0.38283706 37.79296875 0.48828125 C36.49018324 4.75079308 34.84725215 8.47847171 32.66796875 12.36328125 C32.12914062 13.33007812 31.5903125 14.296875 31.03515625 15.29296875 C30.62523437 16.01742187 30.2153125 16.741875 29.79296875 17.48828125 C24.04560631 17.63681159 18.29936504 17.74558304 12.55053711 17.81787109 C10.59591204 17.84800956 8.64142183 17.88892895 6.68725586 17.94091797 C3.87449876 18.01386514 1.06353169 18.04776584 -1.75 18.07421875 C-3.05652779 18.12067032 -3.05652779 18.12067032 -4.38945007 18.1680603 C-10.30476893 18.17132761 -10.30476893 18.17132761 -12.88198853 16.22027588 C-15.07162693 13.71235549 -16.16603737 11.68915125 -16.83203125 8.42578125 C-14.8983521 -0.66251077 -7.63222272 -0.18829708 0 0 Z " fill="#66CAA4" transform="translate(144.20703125,238.51171875)"/>
<path d="M0 0 C0.87128036 0.00233139 1.74256073 0.00466278 2.64024353 0.00706482 C4.4768151 0.01678322 6.31335754 0.03852648 8.1496582 0.0715332 C10.95894799 0.12098996 13.76648576 0.13301858 16.57617188 0.13867188 C18.36329986 0.15275715 20.15041266 0.1689613 21.9375 0.1875 C22.77612076 0.1928627 23.61474152 0.1982254 24.47877502 0.20375061 C25.26316452 0.21973801 26.04755402 0.2357254 26.85571289 0.25219727 C27.54234512 0.26283707 28.22897736 0.27347687 28.93641663 0.28443909 C31.30582773 0.61486085 32.87446768 1.29301621 34.90234375 2.55859375 C37.22770438 6.0466347 37.23692273 7.46000129 36.90234375 11.55859375 C36.02611777 14.18727169 35.46188264 15.22437291 33.07713318 16.64881897 C30.82063769 17.59277366 29.28537342 17.82734111 26.85571289 17.86499023 C25.67912865 17.88897133 25.67912865 17.88897133 24.47877502 17.91343689 C23.64015427 17.91879959 22.80153351 17.92416229 21.9375 17.9296875 C20.63201454 17.94323021 20.63201454 17.94323021 19.30015564 17.95704651 C17.46193881 17.97153444 15.62367059 17.98043213 13.78540039 17.98413086 C10.97779392 17.99603882 8.17237796 18.04524592 5.36523438 18.09570312 C3.57683362 18.10516662 1.78841939 18.11240201 0 18.1171875 C-0.83659653 18.13671982 -1.67319305 18.15625214 -2.53514099 18.17637634 C-6.85275049 18.14305587 -8.58781879 17.94837762 -12.12719727 15.24243164 C-14.09765625 12.55859375 -14.09765625 12.55859375 -14.72265625 9.05859375 C-13.2001546 0.5325845 -7.39737429 -0.17270914 0 0 Z " fill="#F7C64E" transform="translate(236.09765625,255.44140625)"/>
<path d="M0 0 C0.8452977 -0.00241196 1.6905954 -0.00482391 2.56150818 -0.00730896 C4.3407767 -0.00633331 6.12007663 0.00699289 7.89916992 0.03198242 C10.61677391 0.06635162 13.33113343 0.05261347 16.04882812 0.03320312 C17.78256587 0.04010071 19.51629526 0.04977232 21.25 0.0625 C22.05844864 0.05754013 22.86689728 0.05258026 23.69984436 0.04747009 C27.60684012 0.12876729 29.63631047 0.37161673 33.04663086 2.44946289 C35.8355317 5.47051832 36.05859375 7.56098521 36.05859375 11.62890625 C34.71296976 14.57646357 33.97304831 16.17167897 31.05859375 17.62890625 C25.26334252 17.91467171 19.46691399 17.94270386 13.6652832 17.97900391 C11.724406 17.99556069 9.78358969 18.02284713 7.84301758 18.06103516 C5.0434611 18.11583965 2.24533337 18.13768289 -0.5546875 18.15234375 C-1.41943192 18.17501312 -2.28417633 18.1976825 -3.17512512 18.22103882 C-7.56508901 18.20566869 -9.38472176 18.052124 -12.98510742 15.31494141 C-14.94140625 12.62890625 -14.94140625 12.62890625 -15.62890625 9.12890625 C-14.87765562 5.30435759 -13.83829259 4.02655272 -10.80545044 1.66116333 C-7.35335955 -0.25051091 -3.86384474 -0.06352444 0 0 Z " fill="#F5C54F" transform="translate(219.94140625,323.37109375)"/>
<path d="M0 0 C1.07242699 -0.00929787 1.07242699 -0.00929787 2.16651917 -0.01878357 C3.67520795 -0.02587154 5.18397511 -0.02272538 6.69262695 -0.01000977 C8.99382456 0.00384555 11.2909434 -0.03020464 13.59179688 -0.06835938 C15.06119891 -0.06931079 16.530606 -0.06745052 18 -0.0625 C18.68348007 -0.07575821 19.36696014 -0.08901642 20.07115173 -0.10267639 C23.89282533 -0.02869164 25.48413621 0.50054509 28.50415039 2.91821289 C30.56640625 5.56640625 30.56640625 5.56640625 31.12890625 8.56640625 C30.44282968 12.22548129 29.13906311 13.91808301 26.56640625 16.56640625 C22.29161979 18.70379948 16.61903406 17.79338454 11.87280273 17.80664062 C9.77221714 17.81632186 7.6726205 17.84733309 5.57226562 17.87890625 C4.23047455 17.88543911 2.88867648 17.89068847 1.546875 17.89453125 C-0.28000854 17.9085498 -0.28000854 17.9085498 -2.14379883 17.92285156 C-5.71663955 17.53573858 -7.58503008 16.71599408 -10.43359375 14.56640625 C-11.99830608 11.4369816 -12.13061333 7.95558402 -11.43359375 4.56640625 C-8.20702863 0.24095314 -5.09553499 -0.03686802 0 0 Z " fill="#F8C852" transform="translate(259.43359375,136.43359375)"/>
<path d="M0 0 C0.99457718 0.00212242 0.99457718 0.00212242 2.00924683 0.00428772 C4.12860613 0.00988871 6.24786009 0.02244125 8.3671875 0.03515625 C9.80338389 0.04017113 11.23958194 0.04473406 12.67578125 0.04882812 C16.19795095 0.05985843 19.72005895 0.07712366 23.2421875 0.09765625 C24.45599185 4.22357103 25.55711401 8.31120164 26.3671875 12.53515625 C26.61855469 13.83259766 26.61855469 13.83259766 26.875 15.15625 C26.99617188 15.79691406 27.11734375 16.43757813 27.2421875 17.09765625 C22.33092547 17.17189626 17.41999116 17.22630036 12.50830078 17.26245117 C10.83799549 17.27752379 9.16772969 17.29798545 7.49755859 17.32397461 C5.09462737 17.36042598 2.69222006 17.37739756 0.2890625 17.390625 C-0.45587463 17.40610886 -1.20081177 17.42159271 -1.96832275 17.43754578 C-5.18627905 17.43858681 -7.38974942 17.307701 -10.21386719 15.69604492 C-12.53223076 13.29593007 -12.66578417 11.33313142 -12.93359375 8.1015625 C-12.65034914 4.87257396 -11.04897485 3.25789504 -8.7578125 1.09765625 C-5.8358356 -0.3633322 -3.25887775 -0.01369276 0 0 Z " fill="#68CAA6" transform="translate(140.7578125,340.90234375)"/>
<path d="M0 0 C0.98484375 -0.00708984 1.9696875 -0.01417969 2.984375 -0.02148438 C8.62956861 0.02810179 12.80503472 0.24253472 17 4.4375 C17.2734375 6.36328125 17.2734375 6.36328125 17.375 8.75 C17.42398438 9.52988281 17.47296875 10.30976563 17.5234375 11.11328125 C17 13.4375 17 13.4375 15.1953125 15.6953125 C10.38003673 18.32075626 5.89787864 18.05728086 0.5 18 C-0.53253906 18.02384766 -1.56507813 18.04769531 -2.62890625 18.07226562 C-7.49022247 18.06285663 -10.15246384 18.04556034 -14.1796875 15.15625 C-16.95211877 11.01545137 -16.77811827 9.3396451 -16 4.4375 C-11.6249054 -0.8052294 -6.29807449 -0.12777507 0 0 Z " fill="#FDFDFD" transform="translate(392,255.5625)"/>
<path d="M0 0 C0.95068359 -0.020625 1.90136719 -0.04125 2.88085938 -0.0625 C11.72984091 -0.1119702 11.72984091 -0.1119702 15.6875 3.25 C17.25221233 6.37942465 17.38451958 9.86082223 16.6875 13.25 C14.57255366 15.90597913 13.37824682 17.11687425 10.00195312 17.76757812 C9.00099609 17.77208984 8.00003906 17.77660156 6.96875 17.78125 C5.87175781 17.78640625 4.77476562 17.7915625 3.64453125 17.796875 C2.50371094 17.78140625 1.36289062 17.7659375 0.1875 17.75 C-1.52373047 17.77320313 -1.52373047 17.77320313 -3.26953125 17.796875 C-4.36652344 17.79171875 -5.46351563 17.7865625 -6.59375 17.78125 C-8.09518555 17.77448242 -8.09518555 17.77448242 -9.62695312 17.76757812 C-13.00230837 17.11705511 -14.19098191 15.89818866 -16.3125 13.25 C-17.04021233 10.51037712 -16.89221577 8.01785861 -16.3125 5.25 C-11.74652925 -0.68576197 -6.93766517 0.03717436 0 0 Z " fill="#FAFAFC" transform="translate(392.3125,357.75)"/>
<path d="M0 0 C1.21751953 0.02255859 2.43503906 0.04511719 3.68945312 0.06835938 C6.68932929 0.12718048 9.68857196 0.21685736 12.6875 0.3125 C11.6975 5.9225 10.7075 11.5325 9.6875 17.3125 C5.95712153 17.4475499 2.23163588 17.54665132 -1.5 17.625 C-2.55509766 17.66689453 -3.61019531 17.70878906 -4.69726562 17.75195312 C-12.5296632 17.87549252 -12.5296632 17.87549252 -16.51171875 15.01171875 C-18.89696704 11.43643335 -19.06562514 9.53000077 -18.3125 5.3125 C-13.94761147 -1.58941757 -7.47088979 -0.26121992 0 0 Z " fill="#67CAA5" transform="translate(155.3125,272.6875)"/>
<path d="M0 0 C0.69867188 -0.02771484 1.39734375 -0.05542969 2.1171875 -0.08398438 C4.98767799 -0.07044433 7.30544688 0.14735041 9.61328125 1.94213867 C12.24454514 4.89814129 13 6.37078533 13 10.375 C11.64770642 14.85447248 11.64770642 14.85447248 9 16.6875 C5.70907406 17.78447531 3.08887841 17.9246983 -0.375 18 C-1.49648438 18.03738281 -2.61796875 18.07476562 -3.7734375 18.11328125 C-7.65385586 17.60121636 -9.23562425 16.39658823 -12 13.6875 C-13.44430855 10.79888291 -13.37688506 8.89102299 -13 5.6875 C-9.24101832 0.75292945 -5.96540458 -0.12657224 0 0 Z " fill="#B2CCDE" transform="translate(47,170.3125)"/>
<path d="M0 0 C1.69576172 -0.03867187 1.69576172 -0.03867187 3.42578125 -0.078125 C7.02827832 0.28428189 8.82169627 1.07909027 11.6875 3.25 C13.6875 6.25 13.6875 6.25 13.5625 9.6875 C12.57623776 13.70299628 11.96445605 14.81718783 8.6875 17.25 C5.87263167 17.67918602 3.55368146 17.85594812 0.75 17.8125 C0.04681641 17.83634766 -0.65636719 17.86019531 -1.38085938 17.88476562 C-5.34921852 17.8736081 -7.14292228 17.38410027 -10.28125 14.90234375 C-12.3125 12.25 -12.3125 12.25 -12.875 9.25 C-12.18892343 5.59092496 -10.88515686 3.89832324 -8.3125 1.25 C-5.51142988 -0.15053506 -3.12358319 0.0424496 0 0 Z " fill="#B2CCDE" transform="translate(46.3125,340.75)"/>
<path d="M0 0 C1.06057617 -0.01643555 1.06057617 -0.01643555 2.14257812 -0.03320312 C5.60647647 0.01558418 7.58972974 0.29832836 10.375 2.4140625 C12.41629374 5.2208414 12.86676825 7.09664407 12.9375 10.5625 C11.73476408 13.34778317 10.77978914 15.01251212 8.2265625 16.6796875 C5.24069172 17.83123494 2.69597063 17.90055236 -0.5 17.9375 C-2.16869141 17.98003906 -2.16869141 17.98003906 -3.87109375 18.0234375 C-7.70821607 17.46923868 -9.31796795 16.24227902 -12.0625 13.5625 C-13.50680855 10.67388291 -13.43938506 8.76602299 -13.0625 5.5625 C-9.27875606 0.57117821 -6.002799 -0.20357797 0 0 Z " fill="#B2CCDE" transform="translate(47.0625,136.4375)"/>
<path d="M0 0 C1.13953125 -0.02578125 2.2790625 -0.0515625 3.453125 -0.078125 C7.07719032 0.28256397 8.86995112 1.064431 11.75 3.25 C13.75 6.25 13.75 6.25 13.625 9.6875 C12.63873776 13.70299628 12.02695605 14.81718783 8.75 17.25 C5.93513167 17.67918602 3.61618146 17.85594812 0.8125 17.8125 C0.10931641 17.83634766 -0.59386719 17.86019531 -1.31835938 17.88476562 C-5.28585193 17.87361054 -7.07876441 17.38558971 -10.21484375 14.90234375 C-12.25 12.25 -12.25 12.25 -12.875 9.25 C-12.05352072 5.30689946 -10.26509365 3.82386043 -7.25 1.25 C-5.39709648 -0.60290352 -2.48375369 0.03341373 0 0 Z " fill="#B2CCDE" transform="translate(46.25,101.75)"/>
<path d="M0 0 C1.69576172 -0.03867187 1.69576172 -0.03867187 3.42578125 -0.078125 C7.02827832 0.28428189 8.82169627 1.07909027 11.6875 3.25 C13.6875 6.25 13.6875 6.25 13.5625 9.6875 C12.57607185 13.70367176 11.97015238 14.82209577 8.6875 17.25 C5.85684716 17.65100915 3.50403341 17.81122899 0.6875 17.75 C-0.0240625 17.76546875 -0.735625 17.7809375 -1.46875 17.796875 C-4.93090045 17.77103806 -6.94544216 17.52352868 -9.75 15.43359375 C-11.97719551 12.32108803 -12.3125 10.05712522 -12.3125 6.25 C-8.8052538 0.68678188 -6.35026567 0.08630033 0 0 Z " fill="#B2CBDD" transform="translate(46.3125,306.75)"/>
<path d="M0 0 C1.2890625 -0.00128906 2.578125 -0.00257813 3.90625 -0.00390625 C7.98521783 0.63897455 9.65980058 1.61123133 12.5 4.5625 C13.5625 8 13.5625 8 13.5 11.5625 C11.41374661 14.98991629 10.3255689 16.28731037 6.5 17.5625 C4.37930439 17.73316284 2.25204902 17.8287598 0.125 17.875 C-0.99648438 17.91238281 -2.11796875 17.94976562 -3.2734375 17.98828125 C-7.15385586 17.47621636 -8.73562425 16.27158823 -11.5 13.5625 C-12.94430855 10.67388291 -12.87688506 8.76602299 -12.5 5.5625 C-8.72274996 0.6650009 -6.09277681 -0.10357721 0 0 Z " fill="#B2CBDD" transform="translate(46.5,204.4375)"/>
<path d="M0 0 C1.22332031 -0.03738281 2.44664063 -0.07476562 3.70703125 -0.11328125 C7.78566893 0.38567667 9.36067076 1.38135972 12.1875 4.3125 C13.25 7.75 13.25 7.75 13.1875 11.3125 C11.42108828 14.11439446 10.15700178 15.82774911 7.1875 17.3125 C4.71193304 17.48932621 2.29000105 17.58980822 -0.1875 17.625 C-0.86039063 17.65400391 -1.53328125 17.68300781 -2.2265625 17.71289062 C-5.62739059 17.75640516 -7.47117605 17.5676645 -10.2265625 15.5078125 C-12.47758822 12.39186064 -12.8125 10.13609619 -12.8125 6.3125 C-9.18759496 0.56265063 -6.56369588 0.13058662 0 0 Z " fill="#FAFAFC" transform="translate(46.8125,33.6875)"/>
<path d="M0 0 C1.29808594 -0.0103125 2.59617187 -0.020625 3.93359375 -0.03125 C8.05481052 0.57207129 9.70444127 1.51930069 12.5625 4.5 C13.625 7.9375 13.625 7.9375 13.5625 11.5 C11.47624661 14.92741629 10.3880689 16.22481037 6.5625 17.5 C-5.26823734 18.64819195 -5.26823734 18.64819195 -9.50390625 16.40625 C-12.04875555 13.68014363 -12.43694205 11.5323613 -12.5 7.875 C-10.32369925 0.96204466 -6.97790733 -0.05532533 0 0 Z " fill="#B2CBDD" transform="translate(46.4375,238.5)"/>
<path d="M0 0 C1.65515625 0.00193359 1.65515625 0.00193359 3.34375 0.00390625 C6.82164691 0.48168664 8.70443007 1.34574433 11.5 3.4375 C13.5 6.4375 13.5 6.4375 13.4375 9.875 C12.29372067 14.22136144 11.26502855 15.08751573 7.5 17.4375 C2.10223577 18.34103879 -4.62019091 18.93563598 -9.625 16.33203125 C-12.15239689 13.65385216 -12.50087362 11.41216495 -12.625 7.8125 C-10.49009823 1.40779469 -6.44592292 -0.11295426 0 0 Z " fill="#B2CBDD" transform="translate(46.5,272.5625)"/>
<path d="M0 0 C3.39469781 1.21488329 3.88567556 1.86054856 6 5 C6.37703343 8.21322517 6.18706578 10.9814613 5 14 C2.51263049 16.7658064 0.99044627 17.00110465 -2.75 17.43359375 C-4.16656311 17.45077222 -5.58340305 17.45161464 -7 17.4375 C-7.7115625 17.45748047 -8.423125 17.47746094 -9.15625 17.49804688 C-12.6106331 17.4948245 -14.63657171 17.26263598 -17.46484375 15.21875 C-19.34686379 12.49868032 -19.64537312 10.26080055 -19.41796875 6.97265625 C-19 5 -19 5 -17.375 2 C-11.8534071 -1.27205505 -6.24059927 -0.88214078 0 0 Z " fill="#FAFBFC" transform="translate(139,34)"/>
<path d="M0 0 C0.70318359 -0.02384766 1.40636719 -0.04769531 2.13085938 -0.07226562 C6.09921852 -0.0611081 7.89292228 0.42839973 11.03125 2.91015625 C13.0625 5.5625 13.0625 5.5625 13.625 8.5625 C12.93892343 12.22157504 11.63515686 13.91417676 9.0625 16.5625 C4.3886088 18.8994456 -1.86309586 18.06700723 -6.9375 17.5625 C-10.3125 15.5625 -10.3125 15.5625 -11.9375 12.5625 C-12.5795786 9.53212902 -12.39379427 7.75655987 -11.9375 4.5625 C-8.76253379 0.00150793 -5.1912522 -0.08044785 0 0 Z " fill="#F5C54F" transform="translate(259.9375,221.4375)"/>
<path d="M0 0 C4.63309353 2.26618705 4.63309353 2.26618705 6 5 C6.48006117 9.2405403 6.57731798 11.2437793 3.9453125 14.69140625 C0.23517971 17.59948116 -1.830182 17.67169818 -6.5 17.625 C-8.43359375 17.64433594 -8.43359375 17.64433594 -10.40625 17.6640625 C-14.81216976 16.84992515 -16.29068379 15.50677532 -19 12 C-19.75123045 7.79310949 -19.44098839 5.79717131 -17.375 2.0625 C-11.99082715 -1.22782785 -6.15045455 -0.8542298 0 0 Z " fill="#FBFBFC" transform="translate(96,34)"/>
</svg>
